<svg xmlns="http://www.w3.org/2000/svg" width="250" height="250" viewBox="0 0 250 250"><g fill="rgba(255,255,255,0)" stroke="#707070" stroke-width="1"><rect width="250" height="250" rx="29" stroke="none"/><rect x="0.5" y="0.5" width="249" height="249" rx="28.5" fill="none"/></g><g transform="translate(115.701 128.723) rotate(-43)" fill="#fff"><path d="M 151.652099609375 18.2545337677002 L 130.4384307861328 15.86518287658691 L 126.7666473388672 14.51666259765625 L 126.6774063110352 14.48388290405273 L 126.5823669433594 14.48614311218262 L 0.5000096559524536 17.48795509338379 L 0.5000096559524536 2.504831552505493 L 126.6823883056641 3.716803073883057 L 126.8210296630859 3.718122959136963 L 126.9405670166016 3.647862911224365 L 129.9568481445313 1.874890685081482 L 151.0473175048828 0.5317125916481018 L 151.652099609375 18.2545337677002 Z" stroke="none"/><path d="M 150.5651550292969 1.063444137573242 L 130.1075134277344 2.36631965637207 L 127.1939315795898 4.078923225402832 L 126.9548721313477 4.219443321228027 L 126.6775894165039 4.216782569885254 L 0.9999847412109375 3.009659767150879 L 0.9999847412109375 16.97590827941895 L 126.5704650878906 13.98628234863281 L 126.7605514526367 13.98176288604736 L 126.9390258789063 14.04730319976807 L 130.5543060302734 15.37507152557373 L 151.1326141357422 17.69286155700684 L 150.5651550292969 1.063444137573242 M 151.5294494628906 3.814697265625e-06 L 152.1715240478516 18.81620216369629 L 130.3226318359375 16.35530281066895 L 126.5942687988281 14.98600292205811 L -1.52587890625e-05 18.00000381469727 L -1.52587890625e-05 2.000003814697266 L 126.6871871948242 3.216822624206543 L 129.8061676025391 1.38348388671875 L 151.5294494628906 3.814697265625e-06 Z" stroke="none" fill="#707070"/></g><g transform="translate(-12.182 175.942) rotate(-43)" fill="#fff"><path d="M 25.46597099304199 96.31188201904297 C 23.60807800292969 96.31188201904297 21.57813453674316 96.19702911376953 19.26383972167969 95.96089172363281 C 14.91923713684082 93.36190032958984 11.48375511169434 90.52640533447266 8.763721466064453 87.29494476318359 C 6.284337520599365 84.34941101074219 4.446737766265869 81.12274932861328 3.145887851715088 77.43061065673828 C 0.6991044282913208 70.48601531982422 0.5000044107437134 62.93706512451172 0.5000044107437134 54.49999618530273 C 0.5000044107437134 53.4572639465332 0.4975710809230804 52.44046401977539 0.4952210783958435 51.45713043212891 C 0.4720710813999176 41.78944778442383 0.4553377330303192 34.80439758300781 2.79452109336853 29.75901412963867 C 3.994171142578125 27.17148017883301 5.740837574005127 25.20334625244141 8.291387557983398 23.5651798248291 C 10.93392086029053 21.8679141998291 14.50653743743896 20.52288055419922 19.21340370178223 19.45318031311035 C 21.47670364379883 18.93841361999512 24.04205513000488 18.70886421203613 27.53145408630371 18.70886421203613 C 30.22290420532227 18.70886421203613 33.25075531005859 18.84336280822754 36.75670623779297 18.99911308288574 C 41.67913818359375 19.21778106689453 47.25831985473633 19.46561431884766 54.19933700561523 19.46561431884766 C 54.36785507202148 19.46561431884766 54.83367156982422 19.58379745483398 56.06010437011719 20.37534713745117 C 56.99833679199219 20.98089790344238 58.13373947143555 21.81069755554199 59.44842147827148 22.77153015136719 C 63.74068832397461 25.90853118896484 69.619140625 30.20479774475098 74.13007354736328 30.46621322631836 C 76.13700103759766 30.58247947692871 78.21185302734375 30.63899612426758 80.47319030761719 30.63899612426758 C 84.27847290039063 30.63899612426758 87.90251922607422 30.47511291503906 91.09995269775391 30.33051300048828 C 93.63919067382813 30.2156810760498 96.03760528564453 30.10721397399902 98.03103637695313 30.10721397399902 C 100.0674514770508 30.10721397399902 101.5114059448242 30.21774673461914 102.5752182006836 30.45504760742188 C 108.7752075195313 31.83782958984375 113.4635848999023 33.2205810546875 116.908317565918 34.68233108520508 C 120.2901382446289 36.11736297607422 122.5994720458984 37.65191268920898 124.1759185791016 39.51164627075195 C 125.5776901245117 41.16527938842773 126.425537109375 43.14348220825195 126.8441696166992 45.73717880249023 C 127.2534866333008 48.27312850952148 127.2457733154297 51.25886535644531 127.2376022338867 54.41987991333008 C 127.2353744506836 55.45209884643555 127.3480529785156 57.36004638671875 127.4907073974609 59.77561187744141 C 127.8649520874023 66.11277770996094 128.4913330078125 76.71929931640625 127.2790069580078 79.50984954833984 C 125.9762344360352 82.50941467285156 124.549934387207 84.92589569091797 122.918571472168 86.89743041992188 C 121.4284744262695 88.69824981689453 119.758903503418 90.13136291503906 117.8144683837891 91.27866363525391 C 114.1005401611328 93.47003173828125 109.7051391601563 94.41806030273438 104.6156692504883 95.51581573486328 C 103.9539413452148 95.65853118896484 103.2696685791016 95.80612945556641 102.5766220092773 95.95864868164063 C 102.0058746337891 96.08426666259766 101.361701965332 96.14533233642578 100.607307434082 96.14536285400391 C 98.05130767822266 96.14544677734375 94.76575469970703 95.43681335449219 90.96141815185547 94.61626434326172 C 85.99192047119141 93.54441070556641 80.35936737060547 92.32954406738281 74.61814117431641 92.32954406738281 C 74.46315765380859 92.32954406738281 74.30820465087891 92.33042907714844 74.15316772460938 92.33224487304688 C 73.37128448486328 92.34137725830078 72.55480194091797 92.34580993652344 71.65705108642578 92.34580993652344 C 69.30802154541016 92.34583282470703 66.90765380859375 92.31484985351563 64.58631896972656 92.28488159179688 C 62.47072219848633 92.25758361816406 60.47243881225586 92.23179626464844 58.68865585327148 92.23179626464844 C 56.69778823852539 92.23179626464844 55.26123809814453 92.26403045654297 54.16777038574219 92.33321380615234 C 45.40370559692383 92.88797760009766 40.41458892822266 93.98673248291016 36.40575408935547 94.86959838867188 C 32.74680328369141 95.67539978027344 29.85673713684082 96.31188201904297 25.46597099304199 96.31188201904297 Z" stroke="none"/><path d="M 27.53145599365234 19.20885467529297 C 24.08085632324219 19.20885467529297 21.54970550537109 19.43456268310547 19.32421875 19.94072723388672 C 14.6749267578125 20.99734497070313 11.15443420410156 22.32052612304688 8.561576843261719 23.98587799072266 C 6.094474792480469 25.57045745849609 4.406089782714844 27.47174835205078 3.248146057128906 29.96932983398438 C 0.955596923828125 34.91410827636719 0.9722137451171875 41.85265350341797 0.9952163696289063 51.45598220825195 C 0.99755859375 52.43958282470703 1 53.45669174194336 1 54.5 C 1 62.89027404785156 1.19696044921875 70.39443969726563 3.617454528808594 77.26445770263672 C 4.897911071777344 80.89871215820313 6.706398010253906 84.07438659667969 9.146232604980469 86.97296142578125 C 11.81005859375 90.13764190673828 15.17415618896484 92.9202880859375 19.42521667480469 95.47468566894531 C 21.67652893066406 95.70149993896484 23.65479278564453 95.81187438964844 25.46596527099609 95.81187438964844 C 29.80230712890625 95.81187438964844 32.66892242431641 95.18056488037109 36.29819488525391 94.38129425048828 C 40.32376098632813 93.4947509765625 45.33370971679688 92.39141845703125 54.13619995117188 91.83422088623047 C 55.24043273925781 91.76434326171875 56.68704986572266 91.73180389404297 58.68874359130859 91.73180389404297 C 60.47576141357422 91.73180389404297 62.47566986083984 91.75759887695313 64.593017578125 91.78492736816406 C 66.91276550292969 91.81487274169922 69.31147003173828 91.84581756591797 71.65723419189453 91.84581756591797 C 72.55372619628906 91.84581756591797 73.36824035644531 91.84140014648438 74.14736175537109 91.83229064941406 C 74.3043212890625 91.83045959472656 74.46127319335938 91.82954406738281 74.61817932128906 91.82954406738281 C 80.41294860839844 91.82954406738281 86.07334899902344 93.05039978027344 91.06741333007813 94.12753295898438 C 94.84356689453125 94.94198608398438 98.10475921630859 95.64536285400391 100.6073303222656 95.64536285400391 C 101.3149795532227 95.64536285400391 101.9413757324219 95.58647155761719 102.4691467285156 95.47032928466797 C 103.163215637207 95.31758117675781 103.848014831543 95.16989135742188 104.51025390625 95.02705383300781 C 114.7982711791992 92.80803680419922 121.5949249267578 91.34207153320313 126.8204345703125 79.31062316894531 C 127.1584701538086 78.53249359130859 127.5483093261719 76.49095153808594 127.4857788085938 71.18382263183594 C 127.4414672851563 67.42320251464844 127.1920166015625 63.19929122924805 126.9916000366211 59.8053092956543 C 126.8484344482422 57.38111114501953 126.7353591918945 55.46632766723633 126.7376174926758 54.41858291625977 C 126.7558898925781 47.34352874755859 126.6281967163086 43.17781829833984 123.7945098876953 39.83494567871094 C 122.2913055419922 38.06163787841797 119.9749298095703 36.52676391601563 116.7129974365234 35.14260101318359 C 113.2965087890625 33.69284057617188 108.6363983154297 32.31914520263672 102.4663391113281 30.94305419921875 C 101.4392166137695 30.71391296386719 100.0298690795898 30.60720062255859 98.03106689453125 30.60720062255859 C 96.04896545410156 30.60720062255859 93.65611267089844 30.71542358398438 91.12275695800781 30.82998657226563 C 87.91999816894531 30.97483825683594 84.28990173339844 31.13899993896484 80.47325134277344 31.13899993896484 C 78.20223999023438 31.13899993896484 76.11790466308594 31.08219909667969 74.10114288330078 30.96536254882813 C 69.44308471679688 30.6954345703125 63.495849609375 26.34889221191406 59.15335845947266 23.17518615722656 C 57.87834167480469 22.24334716796875 56.77719879150391 21.43856811523438 55.86415863037109 20.84418487548828 C 54.64485168457031 20.05043029785156 54.26364898681641 19.97288513183594 54.19272613525391 19.96559906005859 C 47.24357604980469 19.96544647216797 41.66063690185547 19.71744537353516 36.73452758789063 19.49860382080078 C 33.23450469970703 19.34313201904297 30.21179962158203 19.20885467529297 27.53145599365234 19.20885467529297 M 27.53144836425781 18.20884704589844 C 33.93305206298828 18.20884704589844 42.2064208984375 18.96559906005859 54.1993408203125 18.96559906005859 C 56.55799865722656 18.96559906005859 67.15586853027344 29.56121826171875 74.15899658203125 29.967041015625 C 76.30183410644531 30.0911865234375 78.41754150390625 30.13899993896484 80.47324371337891 30.13899993896484 C 87.33448791503906 30.13899993896484 93.54658508300781 29.60721588134766 98.03106689453125 29.60720825195313 C 99.91351318359375 29.60720062255859 101.491096496582 29.70091247558594 102.6840667724609 29.967041015625 C 127.572998046875 35.51802062988281 127.7726364135742 40.85478210449219 127.7376174926758 54.42116546630859 C 127.7291641235352 58.32909393310547 129.4405670166016 75.7891845703125 127.7376174926758 79.70907592773438 C 121.9576568603516 93.01715087890625 114.1132507324219 93.93170928955078 102.6840667724609 96.44696807861328 C 102.0598602294922 96.58433532714844 101.3647232055664 96.64535522460938 100.6073303222656 96.64535522460938 C 94.61494445800781 96.64535522460938 84.69314575195313 92.82955169677734 74.61817932128906 92.82955169677734 C 74.46514129638672 92.82955169677734 74.31208801269531 92.83042907714844 74.15899658203125 92.83222198486328 C 73.33916473388672 92.841796875 72.50247192382813 92.8458251953125 71.65723419189453 92.8458251953125 C 67.16128540039063 92.8458251953125 62.42305755615234 92.73179626464844 58.68875122070313 92.73179626464844 C 56.92434692382813 92.73179626464844 55.38407135009766 92.75724792480469 54.1993408203125 92.83222198486328 C 37.67141723632813 93.87844085693359 34.88240051269531 96.81187438964844 25.46596527099609 96.81187438964844 C 23.64249420166016 96.81187438964844 21.57105255126953 96.70193481445313 19.10260009765625 96.44696807861328 C 0.7639083862304688 85.52414703369141 0 71.08489227294922 0 54.5 C 0 32.88871002197266 -1.043624877929688 23.54409027099609 19.10260009765625 18.96559906005859 C 21.59785461425781 18.3980712890625 24.33094787597656 18.20884704589844 27.53144836425781 18.20884704589844 Z" stroke="none" fill="#707070"/></g><g transform="translate(63.022 170.078) rotate(-43)" fill="#fff" stroke="#707070" stroke-width="1"><circle cx="14.5" cy="14.5" r="14.5" stroke="none"/><circle cx="14.5" cy="14.5" r="14" fill="none"/></g><g transform="translate(44.639 189.955) rotate(-43)" fill="#fff" stroke="#707070" stroke-width="1"><rect width="2" height="27" stroke="none"/><rect x="0.5" y="0.5" width="1" height="26" fill="none"/></g><line y1="156.958" x2="169.754" transform="translate(53.746 46.5)" fill="none" stroke="#707070" stroke-width="0.1"/><g transform="translate(-224.371 94.674) rotate(-43)"><path d="M0,0V22.759" transform="translate(360.5 254.5)" fill="none" stroke="#707070" stroke-width="1"/><g transform="translate(359 251)" fill="#fff" stroke="#707070" stroke-width="1"><rect width="3" height="4" stroke="none"/><rect x="0.5" y="0.5" width="2" height="3" fill="none"/></g><g transform="translate(359 277)" fill="#fff" stroke="#707070" stroke-width="1"><rect width="3" height="4" stroke="none"/><rect x="0.5" y="0.5" width="2" height="3" fill="none"/></g></g><g transform="translate(-220.445 90.946) rotate(-43)"><path d="M0,0V23" transform="translate(360.5 254.5)" fill="none" stroke="#707070" stroke-width="1"/><g transform="translate(359 251)" fill="#fff" stroke="#707070" stroke-width="1"><rect width="3" height="4" stroke="none"/><rect x="0.5" y="0.5" width="2" height="3" fill="none"/></g><g transform="translate(359 277)" fill="#fff" stroke="#707070" stroke-width="1"><rect width="3" height="4" stroke="none"/><rect x="0.5" y="0.5" width="2" height="3" fill="none"/></g></g><g transform="translate(-216.52 87.218) rotate(-43)"><path d="M0,0V23.448" transform="translate(360.5 254.5)" fill="none" stroke="#707070" stroke-width="1"/><g transform="translate(359 251)" fill="#fff" stroke="#707070" stroke-width="1"><rect width="3" height="4" stroke="none"/><rect x="0.5" y="0.5" width="2" height="3" fill="none"/></g><g transform="translate(359 277)" fill="#fff" stroke="#707070" stroke-width="1"><rect width="3" height="4" stroke="none"/><rect x="0.5" y="0.5" width="2" height="3" fill="none"/></g></g><line y1="160.496" x2="174.118" transform="translate(52.382 41.5)" fill="none" stroke="#707070" stroke-width="0.2"/><line y1="164" x2="178" transform="translate(51.5 36.5)" fill="none" stroke="#707070" stroke-width="0.3"/><line y1="164" x2="178" transform="translate(50.5 35.5)" fill="none" stroke="#707070" stroke-width="0.4"/><line y1="160.108" x2="173.21" transform="translate(49.29 38.5)" fill="none" stroke="#707070" stroke-width="0.5"/><line y1="156.645" x2="169.574" transform="translate(47.926 40.5)" fill="none" stroke="#707070" stroke-width="0.6"/></svg>